<mxfile host="65bd71144e">
    <diagram id="vWasvccjR48EJO8PdYFG" name="Page-1">
        <mxGraphModel dx="1216" dy="787" grid="1" gridSize="10" guides="1" tooltips="1" connect="1" arrows="1" fold="1" page="1" pageScale="1" pageWidth="850" pageHeight="1100" math="0" shadow="0">
            <root>
                <mxCell id="0"/>
                <mxCell id="1" parent="0"/>
                <mxCell id="15" value="User" style="shape=table;startSize=30;container=1;collapsible=0;childLayout=tableLayout;fontStyle=1;align=center;" vertex="1" parent="1">
                    <mxGeometry x="170" y="60" width="360" height="260" as="geometry"/>
                </mxCell>
                <mxCell id="16" value="" style="shape=tableRow;horizontal=0;startSize=0;swimlaneHead=0;swimlaneBody=0;top=0;left=0;bottom=0;right=0;collapsible=0;dropTarget=0;fillColor=none;points=[[0,0.5],[1,0.5]];portConstraint=eastwest;" vertex="1" parent="15">
                    <mxGeometry y="30" width="360" height="22" as="geometry"/>
                </mxCell>
                <mxCell id="17" value="PK" style="shape=partialRectangle;html=1;whiteSpace=wrap;connectable=0;fillColor=none;top=0;left=0;bottom=0;right=0;overflow=hidden;" vertex="1" parent="16">
                    <mxGeometry width="60" height="22" as="geometry">
                        <mxRectangle width="60" height="22" as="alternateBounds"/>
                    </mxGeometry>
                </mxCell>
                <mxCell id="18" value="id" style="shape=partialRectangle;html=1;whiteSpace=wrap;connectable=0;fillColor=none;top=0;left=0;bottom=0;right=0;overflow=hidden;" vertex="1" parent="16">
                    <mxGeometry x="60" width="140" height="22" as="geometry">
                        <mxRectangle width="140" height="22" as="alternateBounds"/>
                    </mxGeometry>
                </mxCell>
                <mxCell id="19" value="string" style="shape=partialRectangle;html=1;whiteSpace=wrap;connectable=0;fillColor=none;top=0;left=0;bottom=0;right=0;overflow=hidden;" vertex="1" parent="16">
                    <mxGeometry x="200" width="160" height="22" as="geometry">
                        <mxRectangle width="160" height="22" as="alternateBounds"/>
                    </mxGeometry>
                </mxCell>
                <mxCell id="20" value="" style="shape=tableRow;horizontal=0;startSize=0;swimlaneHead=0;swimlaneBody=0;top=0;left=0;bottom=0;right=0;collapsible=0;dropTarget=0;fillColor=none;points=[[0,0.5],[1,0.5]];portConstraint=eastwest;" vertex="1" parent="15">
                    <mxGeometry y="52" width="360" height="20" as="geometry"/>
                </mxCell>
                <mxCell id="21" value="" style="shape=partialRectangle;html=1;whiteSpace=wrap;connectable=0;fillColor=none;top=0;left=0;bottom=0;right=0;overflow=hidden;" vertex="1" parent="20">
                    <mxGeometry width="60" height="20" as="geometry">
                        <mxRectangle width="60" height="20" as="alternateBounds"/>
                    </mxGeometry>
                </mxCell>
                <mxCell id="22" value="password&lt;span style=&quot;white-space: pre;&quot;&gt;&#9;&lt;/span&gt;" style="shape=partialRectangle;html=1;whiteSpace=wrap;connectable=0;fillColor=none;top=0;left=0;bottom=0;right=0;overflow=hidden;" vertex="1" parent="20">
                    <mxGeometry x="60" width="140" height="20" as="geometry">
                        <mxRectangle width="140" height="20" as="alternateBounds"/>
                    </mxGeometry>
                </mxCell>
                <mxCell id="23" value="string" style="shape=partialRectangle;html=1;whiteSpace=wrap;connectable=0;fillColor=none;top=0;left=0;bottom=0;right=0;overflow=hidden;" vertex="1" parent="20">
                    <mxGeometry x="200" width="160" height="20" as="geometry">
                        <mxRectangle width="160" height="20" as="alternateBounds"/>
                    </mxGeometry>
                </mxCell>
                <mxCell id="24" value="" style="shape=tableRow;horizontal=0;startSize=0;swimlaneHead=0;swimlaneBody=0;top=0;left=0;bottom=0;right=0;collapsible=0;dropTarget=0;fillColor=none;points=[[0,0.5],[1,0.5]];portConstraint=eastwest;" vertex="1" parent="15">
                    <mxGeometry y="72" width="360" height="20" as="geometry"/>
                </mxCell>
                <mxCell id="25" value="" style="shape=partialRectangle;html=1;whiteSpace=wrap;connectable=0;fillColor=none;top=0;left=0;bottom=0;right=0;overflow=hidden;" vertex="1" parent="24">
                    <mxGeometry width="60" height="20" as="geometry">
                        <mxRectangle width="60" height="20" as="alternateBounds"/>
                    </mxGeometry>
                </mxCell>
                <mxCell id="26" value="last_login" style="shape=partialRectangle;html=1;whiteSpace=wrap;connectable=0;fillColor=none;top=0;left=0;bottom=0;right=0;overflow=hidden;" vertex="1" parent="24">
                    <mxGeometry x="60" width="140" height="20" as="geometry">
                        <mxRectangle width="140" height="20" as="alternateBounds"/>
                    </mxGeometry>
                </mxCell>
                <mxCell id="27" value="date" style="shape=partialRectangle;html=1;whiteSpace=wrap;connectable=0;fillColor=none;top=0;left=0;bottom=0;right=0;overflow=hidden;" vertex="1" parent="24">
                    <mxGeometry x="200" width="160" height="20" as="geometry">
                        <mxRectangle width="160" height="20" as="alternateBounds"/>
                    </mxGeometry>
                </mxCell>
                <mxCell id="32" value="" style="shape=tableRow;horizontal=0;startSize=0;swimlaneHead=0;swimlaneBody=0;top=0;left=0;bottom=0;right=0;collapsible=0;dropTarget=0;fillColor=none;points=[[0,0.5],[1,0.5]];portConstraint=eastwest;" vertex="1" parent="15">
                    <mxGeometry y="92" width="360" height="20" as="geometry"/>
                </mxCell>
                <mxCell id="33" value="" style="shape=partialRectangle;html=1;whiteSpace=wrap;connectable=0;fillColor=none;top=0;left=0;bottom=0;right=0;overflow=hidden;" vertex="1" parent="32">
                    <mxGeometry width="60" height="20" as="geometry">
                        <mxRectangle width="60" height="20" as="alternateBounds"/>
                    </mxGeometry>
                </mxCell>
                <mxCell id="34" value="is superuser" style="shape=partialRectangle;html=1;whiteSpace=wrap;connectable=0;fillColor=none;top=0;left=0;bottom=0;right=0;overflow=hidden;" vertex="1" parent="32">
                    <mxGeometry x="60" width="140" height="20" as="geometry">
                        <mxRectangle width="140" height="20" as="alternateBounds"/>
                    </mxGeometry>
                </mxCell>
                <mxCell id="35" value="boolean" style="shape=partialRectangle;html=1;whiteSpace=wrap;connectable=0;fillColor=none;top=0;left=0;bottom=0;right=0;overflow=hidden;" vertex="1" parent="32">
                    <mxGeometry x="200" width="160" height="20" as="geometry">
                        <mxRectangle width="160" height="20" as="alternateBounds"/>
                    </mxGeometry>
                </mxCell>
                <mxCell id="36" value="" style="shape=tableRow;horizontal=0;startSize=0;swimlaneHead=0;swimlaneBody=0;top=0;left=0;bottom=0;right=0;collapsible=0;dropTarget=0;fillColor=none;points=[[0,0.5],[1,0.5]];portConstraint=eastwest;" vertex="1" parent="15">
                    <mxGeometry y="112" width="360" height="20" as="geometry"/>
                </mxCell>
                <mxCell id="37" value="" style="shape=partialRectangle;html=1;whiteSpace=wrap;connectable=0;fillColor=none;top=0;left=0;bottom=0;right=0;overflow=hidden;" vertex="1" parent="36">
                    <mxGeometry width="60" height="20" as="geometry">
                        <mxRectangle width="60" height="20" as="alternateBounds"/>
                    </mxGeometry>
                </mxCell>
                <mxCell id="38" value="username" style="shape=partialRectangle;html=1;whiteSpace=wrap;connectable=0;fillColor=none;top=0;left=0;bottom=0;right=0;overflow=hidden;" vertex="1" parent="36">
                    <mxGeometry x="60" width="140" height="20" as="geometry">
                        <mxRectangle width="140" height="20" as="alternateBounds"/>
                    </mxGeometry>
                </mxCell>
                <mxCell id="39" value="string" style="shape=partialRectangle;html=1;whiteSpace=wrap;connectable=0;fillColor=none;top=0;left=0;bottom=0;right=0;overflow=hidden;" vertex="1" parent="36">
                    <mxGeometry x="200" width="160" height="20" as="geometry">
                        <mxRectangle width="160" height="20" as="alternateBounds"/>
                    </mxGeometry>
                </mxCell>
                <mxCell id="40" value="" style="shape=tableRow;horizontal=0;startSize=0;swimlaneHead=0;swimlaneBody=0;top=0;left=0;bottom=0;right=0;collapsible=0;dropTarget=0;fillColor=none;points=[[0,0.5],[1,0.5]];portConstraint=eastwest;" vertex="1" parent="15">
                    <mxGeometry y="132" width="360" height="20" as="geometry"/>
                </mxCell>
                <mxCell id="41" value="" style="shape=partialRectangle;html=1;whiteSpace=wrap;connectable=0;fillColor=none;top=0;left=0;bottom=0;right=0;overflow=hidden;" vertex="1" parent="40">
                    <mxGeometry width="60" height="20" as="geometry">
                        <mxRectangle width="60" height="20" as="alternateBounds"/>
                    </mxGeometry>
                </mxCell>
                <mxCell id="42" value="first_name" style="shape=partialRectangle;html=1;whiteSpace=wrap;connectable=0;fillColor=none;top=0;left=0;bottom=0;right=0;overflow=hidden;" vertex="1" parent="40">
                    <mxGeometry x="60" width="140" height="20" as="geometry">
                        <mxRectangle width="140" height="20" as="alternateBounds"/>
                    </mxGeometry>
                </mxCell>
                <mxCell id="43" value="string" style="shape=partialRectangle;html=1;whiteSpace=wrap;connectable=0;fillColor=none;top=0;left=0;bottom=0;right=0;overflow=hidden;" vertex="1" parent="40">
                    <mxGeometry x="200" width="160" height="20" as="geometry">
                        <mxRectangle width="160" height="20" as="alternateBounds"/>
                    </mxGeometry>
                </mxCell>
                <mxCell id="44" value="" style="shape=tableRow;horizontal=0;startSize=0;swimlaneHead=0;swimlaneBody=0;top=0;left=0;bottom=0;right=0;collapsible=0;dropTarget=0;fillColor=none;points=[[0,0.5],[1,0.5]];portConstraint=eastwest;" vertex="1" parent="15">
                    <mxGeometry y="152" width="360" height="20" as="geometry"/>
                </mxCell>
                <mxCell id="45" value="" style="shape=partialRectangle;html=1;whiteSpace=wrap;connectable=0;fillColor=none;top=0;left=0;bottom=0;right=0;overflow=hidden;" vertex="1" parent="44">
                    <mxGeometry width="60" height="20" as="geometry">
                        <mxRectangle width="60" height="20" as="alternateBounds"/>
                    </mxGeometry>
                </mxCell>
                <mxCell id="46" value="last_name" style="shape=partialRectangle;html=1;whiteSpace=wrap;connectable=0;fillColor=none;top=0;left=0;bottom=0;right=0;overflow=hidden;" vertex="1" parent="44">
                    <mxGeometry x="60" width="140" height="20" as="geometry">
                        <mxRectangle width="140" height="20" as="alternateBounds"/>
                    </mxGeometry>
                </mxCell>
                <mxCell id="47" value="string" style="shape=partialRectangle;html=1;whiteSpace=wrap;connectable=0;fillColor=none;top=0;left=0;bottom=0;right=0;overflow=hidden;" vertex="1" parent="44">
                    <mxGeometry x="200" width="160" height="20" as="geometry">
                        <mxRectangle width="160" height="20" as="alternateBounds"/>
                    </mxGeometry>
                </mxCell>
                <mxCell id="48" value="" style="shape=tableRow;horizontal=0;startSize=0;swimlaneHead=0;swimlaneBody=0;top=0;left=0;bottom=0;right=0;collapsible=0;dropTarget=0;fillColor=none;points=[[0,0.5],[1,0.5]];portConstraint=eastwest;" vertex="1" parent="15">
                    <mxGeometry y="172" width="360" height="22" as="geometry"/>
                </mxCell>
                <mxCell id="49" value="" style="shape=partialRectangle;html=1;whiteSpace=wrap;connectable=0;fillColor=none;top=0;left=0;bottom=0;right=0;overflow=hidden;" vertex="1" parent="48">
                    <mxGeometry width="60" height="22" as="geometry">
                        <mxRectangle width="60" height="22" as="alternateBounds"/>
                    </mxGeometry>
                </mxCell>
                <mxCell id="50" value="email" style="shape=partialRectangle;html=1;whiteSpace=wrap;connectable=0;fillColor=none;top=0;left=0;bottom=0;right=0;overflow=hidden;" vertex="1" parent="48">
                    <mxGeometry x="60" width="140" height="22" as="geometry">
                        <mxRectangle width="140" height="22" as="alternateBounds"/>
                    </mxGeometry>
                </mxCell>
                <mxCell id="51" value="string" style="shape=partialRectangle;html=1;whiteSpace=wrap;connectable=0;fillColor=none;top=0;left=0;bottom=0;right=0;overflow=hidden;" vertex="1" parent="48">
                    <mxGeometry x="200" width="160" height="22" as="geometry">
                        <mxRectangle width="160" height="22" as="alternateBounds"/>
                    </mxGeometry>
                </mxCell>
                <mxCell id="52" value="" style="shape=tableRow;horizontal=0;startSize=0;swimlaneHead=0;swimlaneBody=0;top=0;left=0;bottom=0;right=0;collapsible=0;dropTarget=0;fillColor=none;points=[[0,0.5],[1,0.5]];portConstraint=eastwest;" vertex="1" parent="15">
                    <mxGeometry y="194" width="360" height="22" as="geometry"/>
                </mxCell>
                <mxCell id="53" value="" style="shape=partialRectangle;html=1;whiteSpace=wrap;connectable=0;fillColor=none;top=0;left=0;bottom=0;right=0;overflow=hidden;" vertex="1" parent="52">
                    <mxGeometry width="60" height="22" as="geometry">
                        <mxRectangle width="60" height="22" as="alternateBounds"/>
                    </mxGeometry>
                </mxCell>
                <mxCell id="54" value="is_staff" style="shape=partialRectangle;html=1;whiteSpace=wrap;connectable=0;fillColor=none;top=0;left=0;bottom=0;right=0;overflow=hidden;" vertex="1" parent="52">
                    <mxGeometry x="60" width="140" height="22" as="geometry">
                        <mxRectangle width="140" height="22" as="alternateBounds"/>
                    </mxGeometry>
                </mxCell>
                <mxCell id="55" value="boolean" style="shape=partialRectangle;html=1;whiteSpace=wrap;connectable=0;fillColor=none;top=0;left=0;bottom=0;right=0;overflow=hidden;" vertex="1" parent="52">
                    <mxGeometry x="200" width="160" height="22" as="geometry">
                        <mxRectangle width="160" height="22" as="alternateBounds"/>
                    </mxGeometry>
                </mxCell>
                <mxCell id="56" value="" style="shape=tableRow;horizontal=0;startSize=0;swimlaneHead=0;swimlaneBody=0;top=0;left=0;bottom=0;right=0;collapsible=0;dropTarget=0;fillColor=none;points=[[0,0.5],[1,0.5]];portConstraint=eastwest;" vertex="1" parent="15">
                    <mxGeometry y="216" width="360" height="22" as="geometry"/>
                </mxCell>
                <mxCell id="57" value="" style="shape=partialRectangle;html=1;whiteSpace=wrap;connectable=0;fillColor=none;top=0;left=0;bottom=0;right=0;overflow=hidden;" vertex="1" parent="56">
                    <mxGeometry width="60" height="22" as="geometry">
                        <mxRectangle width="60" height="22" as="alternateBounds"/>
                    </mxGeometry>
                </mxCell>
                <mxCell id="58" value="is_active" style="shape=partialRectangle;html=1;whiteSpace=wrap;connectable=0;fillColor=none;top=0;left=0;bottom=0;right=0;overflow=hidden;" vertex="1" parent="56">
                    <mxGeometry x="60" width="140" height="22" as="geometry">
                        <mxRectangle width="140" height="22" as="alternateBounds"/>
                    </mxGeometry>
                </mxCell>
                <mxCell id="59" value="boolean" style="shape=partialRectangle;html=1;whiteSpace=wrap;connectable=0;fillColor=none;top=0;left=0;bottom=0;right=0;overflow=hidden;" vertex="1" parent="56">
                    <mxGeometry x="200" width="160" height="22" as="geometry">
                        <mxRectangle width="160" height="22" as="alternateBounds"/>
                    </mxGeometry>
                </mxCell>
                <mxCell id="60" value="" style="shape=tableRow;horizontal=0;startSize=0;swimlaneHead=0;swimlaneBody=0;top=0;left=0;bottom=0;right=0;collapsible=0;dropTarget=0;fillColor=none;points=[[0,0.5],[1,0.5]];portConstraint=eastwest;" vertex="1" parent="15">
                    <mxGeometry y="238" width="360" height="22" as="geometry"/>
                </mxCell>
                <mxCell id="61" value="" style="shape=partialRectangle;html=1;whiteSpace=wrap;connectable=0;fillColor=none;top=0;left=0;bottom=0;right=0;overflow=hidden;" vertex="1" parent="60">
                    <mxGeometry width="60" height="22" as="geometry">
                        <mxRectangle width="60" height="22" as="alternateBounds"/>
                    </mxGeometry>
                </mxCell>
                <mxCell id="62" value="date_joined" style="shape=partialRectangle;html=1;whiteSpace=wrap;connectable=0;fillColor=none;top=0;left=0;bottom=0;right=0;overflow=hidden;" vertex="1" parent="60">
                    <mxGeometry x="60" width="140" height="22" as="geometry">
                        <mxRectangle width="140" height="22" as="alternateBounds"/>
                    </mxGeometry>
                </mxCell>
                <mxCell id="63" value="date" style="shape=partialRectangle;html=1;whiteSpace=wrap;connectable=0;fillColor=none;top=0;left=0;bottom=0;right=0;overflow=hidden;" vertex="1" parent="60">
                    <mxGeometry x="200" width="160" height="22" as="geometry">
                        <mxRectangle width="160" height="22" as="alternateBounds"/>
                    </mxGeometry>
                </mxCell>
                <mxCell id="28" value="" style="shape=tableRow;horizontal=0;startSize=0;swimlaneHead=0;swimlaneBody=0;top=0;left=0;bottom=0;right=0;collapsible=0;dropTarget=0;fillColor=none;points=[[0,0.5],[1,0.5]];portConstraint=eastwest;" vertex="1" parent="1">
                    <mxGeometry x="200" y="200" width="360" height="20" as="geometry"/>
                </mxCell>
                <mxCell id="29" value="" style="shape=partialRectangle;html=1;whiteSpace=wrap;connectable=0;fillColor=none;top=0;left=0;bottom=0;right=0;overflow=hidden;" vertex="1" parent="28">
                    <mxGeometry width="60" height="20" as="geometry">
                        <mxRectangle width="60" height="20" as="alternateBounds"/>
                    </mxGeometry>
                </mxCell>
                <mxCell id="30" value="" style="shape=partialRectangle;html=1;whiteSpace=wrap;connectable=0;fillColor=none;top=0;left=0;bottom=0;right=0;overflow=hidden;" vertex="1" parent="28">
                    <mxGeometry x="40" y="-12" width="140" height="20" as="geometry">
                        <mxRectangle width="140" height="20" as="alternateBounds"/>
                    </mxGeometry>
                </mxCell>
                <mxCell id="31" value="" style="shape=partialRectangle;html=1;whiteSpace=wrap;connectable=0;fillColor=none;top=0;left=0;bottom=0;right=0;overflow=hidden;" vertex="1" parent="28">
                    <mxGeometry x="200" width="160" height="20" as="geometry">
                        <mxRectangle width="160" height="20" as="alternateBounds"/>
                    </mxGeometry>
                </mxCell>
                <mxCell id="64" value="Projects" style="shape=table;startSize=30;container=1;collapsible=0;childLayout=tableLayout;fontStyle=1;align=center;" vertex="1" parent="1">
                    <mxGeometry x="190" y="380" width="320" height="190" as="geometry"/>
                </mxCell>
                <mxCell id="65" value="" style="shape=tableRow;horizontal=0;startSize=0;swimlaneHead=0;swimlaneBody=0;top=0;left=0;bottom=0;right=0;collapsible=0;dropTarget=0;fillColor=none;points=[[0,0.5],[1,0.5]];portConstraint=eastwest;" vertex="1" parent="64">
                    <mxGeometry y="30" width="320" height="20" as="geometry"/>
                </mxCell>
                <mxCell id="66" value="PK" style="shape=partialRectangle;html=1;whiteSpace=wrap;connectable=0;fillColor=none;top=0;left=0;bottom=0;right=0;overflow=hidden;" vertex="1" parent="65">
                    <mxGeometry width="60" height="20" as="geometry">
                        <mxRectangle width="60" height="20" as="alternateBounds"/>
                    </mxGeometry>
                </mxCell>
                <mxCell id="67" value="project_id" style="shape=partialRectangle;html=1;whiteSpace=wrap;connectable=0;fillColor=none;top=0;left=0;bottom=0;right=0;overflow=hidden;" vertex="1" parent="65">
                    <mxGeometry x="60" width="130" height="20" as="geometry">
                        <mxRectangle width="130" height="20" as="alternateBounds"/>
                    </mxGeometry>
                </mxCell>
                <mxCell id="68" value="string" style="shape=partialRectangle;html=1;whiteSpace=wrap;connectable=0;fillColor=none;top=0;left=0;bottom=0;right=0;overflow=hidden;" vertex="1" parent="65">
                    <mxGeometry x="190" width="130" height="20" as="geometry">
                        <mxRectangle width="130" height="20" as="alternateBounds"/>
                    </mxGeometry>
                </mxCell>
                <mxCell id="69" value="" style="shape=tableRow;horizontal=0;startSize=0;swimlaneHead=0;swimlaneBody=0;top=0;left=0;bottom=0;right=0;collapsible=0;dropTarget=0;fillColor=none;points=[[0,0.5],[1,0.5]];portConstraint=eastwest;" vertex="1" parent="64">
                    <mxGeometry y="50" width="320" height="20" as="geometry"/>
                </mxCell>
                <mxCell id="70" value="" style="shape=partialRectangle;html=1;whiteSpace=wrap;connectable=0;fillColor=none;top=0;left=0;bottom=0;right=0;overflow=hidden;" vertex="1" parent="69">
                    <mxGeometry width="60" height="20" as="geometry">
                        <mxRectangle width="60" height="20" as="alternateBounds"/>
                    </mxGeometry>
                </mxCell>
                <mxCell id="71" value="title" style="shape=partialRectangle;html=1;whiteSpace=wrap;connectable=0;fillColor=none;top=0;left=0;bottom=0;right=0;overflow=hidden;" vertex="1" parent="69">
                    <mxGeometry x="60" width="130" height="20" as="geometry">
                        <mxRectangle width="130" height="20" as="alternateBounds"/>
                    </mxGeometry>
                </mxCell>
                <mxCell id="72" value="string" style="shape=partialRectangle;html=1;whiteSpace=wrap;connectable=0;fillColor=none;top=0;left=0;bottom=0;right=0;overflow=hidden;" vertex="1" parent="69">
                    <mxGeometry x="190" width="130" height="20" as="geometry">
                        <mxRectangle width="130" height="20" as="alternateBounds"/>
                    </mxGeometry>
                </mxCell>
                <mxCell id="73" value="" style="shape=tableRow;horizontal=0;startSize=0;swimlaneHead=0;swimlaneBody=0;top=0;left=0;bottom=0;right=0;collapsible=0;dropTarget=0;fillColor=none;points=[[0,0.5],[1,0.5]];portConstraint=eastwest;" vertex="1" parent="64">
                    <mxGeometry y="70" width="320" height="20" as="geometry"/>
                </mxCell>
                <mxCell id="74" value="" style="shape=partialRectangle;html=1;whiteSpace=wrap;connectable=0;fillColor=none;top=0;left=0;bottom=0;right=0;overflow=hidden;" vertex="1" parent="73">
                    <mxGeometry width="60" height="20" as="geometry">
                        <mxRectangle width="60" height="20" as="alternateBounds"/>
                    </mxGeometry>
                </mxCell>
                <mxCell id="75" value="description" style="shape=partialRectangle;html=1;whiteSpace=wrap;connectable=0;fillColor=none;top=0;left=0;bottom=0;right=0;overflow=hidden;" vertex="1" parent="73">
                    <mxGeometry x="60" width="130" height="20" as="geometry">
                        <mxRectangle width="130" height="20" as="alternateBounds"/>
                    </mxGeometry>
                </mxCell>
                <mxCell id="76" value="string" style="shape=partialRectangle;html=1;whiteSpace=wrap;connectable=0;fillColor=none;top=0;left=0;bottom=0;right=0;overflow=hidden;" vertex="1" parent="73">
                    <mxGeometry x="190" width="130" height="20" as="geometry">
                        <mxRectangle width="130" height="20" as="alternateBounds"/>
                    </mxGeometry>
                </mxCell>
                <mxCell id="77" value="" style="shape=tableRow;horizontal=0;startSize=0;swimlaneHead=0;swimlaneBody=0;top=0;left=0;bottom=0;right=0;collapsible=0;dropTarget=0;fillColor=none;points=[[0,0.5],[1,0.5]];portConstraint=eastwest;" vertex="1" parent="64">
                    <mxGeometry y="90" width="320" height="20" as="geometry"/>
                </mxCell>
                <mxCell id="78" value="" style="shape=partialRectangle;html=1;whiteSpace=wrap;connectable=0;fillColor=none;top=0;left=0;bottom=0;right=0;overflow=hidden;" vertex="1" parent="77">
                    <mxGeometry width="60" height="20" as="geometry">
                        <mxRectangle width="60" height="20" as="alternateBounds"/>
                    </mxGeometry>
                </mxCell>
                <mxCell id="79" value="goal" style="shape=partialRectangle;html=1;whiteSpace=wrap;connectable=0;fillColor=none;top=0;left=0;bottom=0;right=0;overflow=hidden;" vertex="1" parent="77">
                    <mxGeometry x="60" width="130" height="20" as="geometry">
                        <mxRectangle width="130" height="20" as="alternateBounds"/>
                    </mxGeometry>
                </mxCell>
                <mxCell id="80" value="integer" style="shape=partialRectangle;html=1;whiteSpace=wrap;connectable=0;fillColor=none;top=0;left=0;bottom=0;right=0;overflow=hidden;" vertex="1" parent="77">
                    <mxGeometry x="190" width="130" height="20" as="geometry">
                        <mxRectangle width="130" height="20" as="alternateBounds"/>
                    </mxGeometry>
                </mxCell>
                <mxCell id="81" value="" style="shape=tableRow;horizontal=0;startSize=0;swimlaneHead=0;swimlaneBody=0;top=0;left=0;bottom=0;right=0;collapsible=0;dropTarget=0;fillColor=none;points=[[0,0.5],[1,0.5]];portConstraint=eastwest;" vertex="1" parent="64">
                    <mxGeometry y="110" width="320" height="20" as="geometry"/>
                </mxCell>
                <mxCell id="82" value="" style="shape=partialRectangle;html=1;whiteSpace=wrap;connectable=0;fillColor=none;top=0;left=0;bottom=0;right=0;overflow=hidden;" vertex="1" parent="81">
                    <mxGeometry width="60" height="20" as="geometry">
                        <mxRectangle width="60" height="20" as="alternateBounds"/>
                    </mxGeometry>
                </mxCell>
                <mxCell id="83" value="image" style="shape=partialRectangle;html=1;whiteSpace=wrap;connectable=0;fillColor=none;top=0;left=0;bottom=0;right=0;overflow=hidden;" vertex="1" parent="81">
                    <mxGeometry x="60" width="130" height="20" as="geometry">
                        <mxRectangle width="130" height="20" as="alternateBounds"/>
                    </mxGeometry>
                </mxCell>
                <mxCell id="84" value="image" style="shape=partialRectangle;html=1;whiteSpace=wrap;connectable=0;fillColor=none;top=0;left=0;bottom=0;right=0;overflow=hidden;" vertex="1" parent="81">
                    <mxGeometry x="190" width="130" height="20" as="geometry">
                        <mxRectangle width="130" height="20" as="alternateBounds"/>
                    </mxGeometry>
                </mxCell>
                <mxCell id="85" value="" style="shape=tableRow;horizontal=0;startSize=0;swimlaneHead=0;swimlaneBody=0;top=0;left=0;bottom=0;right=0;collapsible=0;dropTarget=0;fillColor=none;points=[[0,0.5],[1,0.5]];portConstraint=eastwest;" vertex="1" parent="64">
                    <mxGeometry y="130" width="320" height="20" as="geometry"/>
                </mxCell>
                <mxCell id="86" value="" style="shape=partialRectangle;html=1;whiteSpace=wrap;connectable=0;fillColor=none;top=0;left=0;bottom=0;right=0;overflow=hidden;" vertex="1" parent="85">
                    <mxGeometry width="60" height="20" as="geometry">
                        <mxRectangle width="60" height="20" as="alternateBounds"/>
                    </mxGeometry>
                </mxCell>
                <mxCell id="87" value="is_open" style="shape=partialRectangle;html=1;whiteSpace=wrap;connectable=0;fillColor=none;top=0;left=0;bottom=0;right=0;overflow=hidden;" vertex="1" parent="85">
                    <mxGeometry x="60" width="130" height="20" as="geometry">
                        <mxRectangle width="130" height="20" as="alternateBounds"/>
                    </mxGeometry>
                </mxCell>
                <mxCell id="88" value="boolean" style="shape=partialRectangle;html=1;whiteSpace=wrap;connectable=0;fillColor=none;top=0;left=0;bottom=0;right=0;overflow=hidden;" vertex="1" parent="85">
                    <mxGeometry x="190" width="130" height="20" as="geometry">
                        <mxRectangle width="130" height="20" as="alternateBounds"/>
                    </mxGeometry>
                </mxCell>
                <mxCell id="89" value="" style="shape=tableRow;horizontal=0;startSize=0;swimlaneHead=0;swimlaneBody=0;top=0;left=0;bottom=0;right=0;collapsible=0;dropTarget=0;fillColor=none;points=[[0,0.5],[1,0.5]];portConstraint=eastwest;" vertex="1" parent="64">
                    <mxGeometry y="150" width="320" height="20" as="geometry"/>
                </mxCell>
                <mxCell id="90" value="" style="shape=partialRectangle;html=1;whiteSpace=wrap;connectable=0;fillColor=none;top=0;left=0;bottom=0;right=0;overflow=hidden;" vertex="1" parent="89">
                    <mxGeometry width="60" height="20" as="geometry">
                        <mxRectangle width="60" height="20" as="alternateBounds"/>
                    </mxGeometry>
                </mxCell>
                <mxCell id="91" value="date_created" style="shape=partialRectangle;html=1;whiteSpace=wrap;connectable=0;fillColor=none;top=0;left=0;bottom=0;right=0;overflow=hidden;" vertex="1" parent="89">
                    <mxGeometry x="60" width="130" height="20" as="geometry">
                        <mxRectangle width="130" height="20" as="alternateBounds"/>
                    </mxGeometry>
                </mxCell>
                <mxCell id="92" value="date" style="shape=partialRectangle;html=1;whiteSpace=wrap;connectable=0;fillColor=none;top=0;left=0;bottom=0;right=0;overflow=hidden;" vertex="1" parent="89">
                    <mxGeometry x="190" width="130" height="20" as="geometry">
                        <mxRectangle width="130" height="20" as="alternateBounds"/>
                    </mxGeometry>
                </mxCell>
                <mxCell id="93" value="" style="shape=tableRow;horizontal=0;startSize=0;swimlaneHead=0;swimlaneBody=0;top=0;left=0;bottom=0;right=0;collapsible=0;dropTarget=0;fillColor=none;points=[[0,0.5],[1,0.5]];portConstraint=eastwest;" vertex="1" parent="64">
                    <mxGeometry y="170" width="320" height="20" as="geometry"/>
                </mxCell>
                <mxCell id="94" value="FK" style="shape=partialRectangle;html=1;whiteSpace=wrap;connectable=0;fillColor=none;top=0;left=0;bottom=0;right=0;overflow=hidden;" vertex="1" parent="93">
                    <mxGeometry width="60" height="20" as="geometry">
                        <mxRectangle width="60" height="20" as="alternateBounds"/>
                    </mxGeometry>
                </mxCell>
                <mxCell id="95" value="ownder_id" style="shape=partialRectangle;html=1;whiteSpace=wrap;connectable=0;fillColor=none;top=0;left=0;bottom=0;right=0;overflow=hidden;" vertex="1" parent="93">
                    <mxGeometry x="60" width="130" height="20" as="geometry">
                        <mxRectangle width="130" height="20" as="alternateBounds"/>
                    </mxGeometry>
                </mxCell>
                <mxCell id="96" value="sting" style="shape=partialRectangle;html=1;whiteSpace=wrap;connectable=0;fillColor=none;top=0;left=0;bottom=0;right=0;overflow=hidden;" vertex="1" parent="93">
                    <mxGeometry x="190" width="130" height="20" as="geometry">
                        <mxRectangle width="130" height="20" as="alternateBounds"/>
                    </mxGeometry>
                </mxCell>
                <mxCell id="131" value="Pledges" style="shape=table;startSize=30;container=1;collapsible=0;childLayout=tableLayout;fontStyle=1;align=center;" vertex="1" parent="1">
                    <mxGeometry x="190" y="620" width="320" height="150" as="geometry"/>
                </mxCell>
                <mxCell id="132" value="" style="shape=tableRow;horizontal=0;startSize=0;swimlaneHead=0;swimlaneBody=0;top=0;left=0;bottom=0;right=0;collapsible=0;dropTarget=0;fillColor=none;points=[[0,0.5],[1,0.5]];portConstraint=eastwest;" vertex="1" parent="131">
                    <mxGeometry y="30" width="320" height="20" as="geometry"/>
                </mxCell>
                <mxCell id="133" value="PK" style="shape=partialRectangle;html=1;whiteSpace=wrap;connectable=0;fillColor=none;top=0;left=0;bottom=0;right=0;overflow=hidden;" vertex="1" parent="132">
                    <mxGeometry width="53" height="20" as="geometry">
                        <mxRectangle width="53" height="20" as="alternateBounds"/>
                    </mxGeometry>
                </mxCell>
                <mxCell id="134" value="pledge_id" style="shape=partialRectangle;html=1;whiteSpace=wrap;connectable=0;fillColor=none;top=0;left=0;bottom=0;right=0;overflow=hidden;" vertex="1" parent="132">
                    <mxGeometry x="53" width="139" height="20" as="geometry">
                        <mxRectangle width="139" height="20" as="alternateBounds"/>
                    </mxGeometry>
                </mxCell>
                <mxCell id="135" value="sting" style="shape=partialRectangle;html=1;whiteSpace=wrap;connectable=0;fillColor=none;top=0;left=0;bottom=0;right=0;overflow=hidden;" vertex="1" parent="132">
                    <mxGeometry x="192" width="128" height="20" as="geometry">
                        <mxRectangle width="128" height="20" as="alternateBounds"/>
                    </mxGeometry>
                </mxCell>
                <mxCell id="136" value="" style="shape=tableRow;horizontal=0;startSize=0;swimlaneHead=0;swimlaneBody=0;top=0;left=0;bottom=0;right=0;collapsible=0;dropTarget=0;fillColor=none;points=[[0,0.5],[1,0.5]];portConstraint=eastwest;" vertex="1" parent="131">
                    <mxGeometry y="50" width="320" height="20" as="geometry"/>
                </mxCell>
                <mxCell id="137" value="" style="shape=partialRectangle;html=1;whiteSpace=wrap;connectable=0;fillColor=none;top=0;left=0;bottom=0;right=0;overflow=hidden;" vertex="1" parent="136">
                    <mxGeometry width="53" height="20" as="geometry">
                        <mxRectangle width="53" height="20" as="alternateBounds"/>
                    </mxGeometry>
                </mxCell>
                <mxCell id="138" value="amount" style="shape=partialRectangle;html=1;whiteSpace=wrap;connectable=0;fillColor=none;top=0;left=0;bottom=0;right=0;overflow=hidden;" vertex="1" parent="136">
                    <mxGeometry x="53" width="139" height="20" as="geometry">
                        <mxRectangle width="139" height="20" as="alternateBounds"/>
                    </mxGeometry>
                </mxCell>
                <mxCell id="139" value="integer" style="shape=partialRectangle;html=1;whiteSpace=wrap;connectable=0;fillColor=none;top=0;left=0;bottom=0;right=0;overflow=hidden;" vertex="1" parent="136">
                    <mxGeometry x="192" width="128" height="20" as="geometry">
                        <mxRectangle width="128" height="20" as="alternateBounds"/>
                    </mxGeometry>
                </mxCell>
                <mxCell id="140" value="" style="shape=tableRow;horizontal=0;startSize=0;swimlaneHead=0;swimlaneBody=0;top=0;left=0;bottom=0;right=0;collapsible=0;dropTarget=0;fillColor=none;points=[[0,0.5],[1,0.5]];portConstraint=eastwest;" vertex="1" parent="131">
                    <mxGeometry y="70" width="320" height="20" as="geometry"/>
                </mxCell>
                <mxCell id="141" value="" style="shape=partialRectangle;html=1;whiteSpace=wrap;connectable=0;fillColor=none;top=0;left=0;bottom=0;right=0;overflow=hidden;" vertex="1" parent="140">
                    <mxGeometry width="53" height="20" as="geometry">
                        <mxRectangle width="53" height="20" as="alternateBounds"/>
                    </mxGeometry>
                </mxCell>
                <mxCell id="142" value="comment" style="shape=partialRectangle;html=1;whiteSpace=wrap;connectable=0;fillColor=none;top=0;left=0;bottom=0;right=0;overflow=hidden;" vertex="1" parent="140">
                    <mxGeometry x="53" width="139" height="20" as="geometry">
                        <mxRectangle width="139" height="20" as="alternateBounds"/>
                    </mxGeometry>
                </mxCell>
                <mxCell id="143" value="string" style="shape=partialRectangle;html=1;whiteSpace=wrap;connectable=0;fillColor=none;top=0;left=0;bottom=0;right=0;overflow=hidden;" vertex="1" parent="140">
                    <mxGeometry x="192" width="128" height="20" as="geometry">
                        <mxRectangle width="128" height="20" as="alternateBounds"/>
                    </mxGeometry>
                </mxCell>
                <mxCell id="144" value="" style="shape=tableRow;horizontal=0;startSize=0;swimlaneHead=0;swimlaneBody=0;top=0;left=0;bottom=0;right=0;collapsible=0;dropTarget=0;fillColor=none;points=[[0,0.5],[1,0.5]];portConstraint=eastwest;" vertex="1" parent="131">
                    <mxGeometry y="90" width="320" height="20" as="geometry"/>
                </mxCell>
                <mxCell id="145" value="" style="shape=partialRectangle;html=1;whiteSpace=wrap;connectable=0;fillColor=none;top=0;left=0;bottom=0;right=0;overflow=hidden;" vertex="1" parent="144">
                    <mxGeometry width="53" height="20" as="geometry">
                        <mxRectangle width="53" height="20" as="alternateBounds"/>
                    </mxGeometry>
                </mxCell>
                <mxCell id="146" value="anonymous" style="shape=partialRectangle;html=1;whiteSpace=wrap;connectable=0;fillColor=none;top=0;left=0;bottom=0;right=0;overflow=hidden;" vertex="1" parent="144">
                    <mxGeometry x="53" width="139" height="20" as="geometry">
                        <mxRectangle width="139" height="20" as="alternateBounds"/>
                    </mxGeometry>
                </mxCell>
                <mxCell id="147" value="boolean" style="shape=partialRectangle;html=1;whiteSpace=wrap;connectable=0;fillColor=none;top=0;left=0;bottom=0;right=0;overflow=hidden;" vertex="1" parent="144">
                    <mxGeometry x="192" width="128" height="20" as="geometry">
                        <mxRectangle width="128" height="20" as="alternateBounds"/>
                    </mxGeometry>
                </mxCell>
                <mxCell id="148" value="" style="shape=tableRow;horizontal=0;startSize=0;swimlaneHead=0;swimlaneBody=0;top=0;left=0;bottom=0;right=0;collapsible=0;dropTarget=0;fillColor=none;points=[[0,0.5],[1,0.5]];portConstraint=eastwest;" vertex="1" parent="131">
                    <mxGeometry y="110" width="320" height="20" as="geometry"/>
                </mxCell>
                <mxCell id="149" value="FK" style="shape=partialRectangle;html=1;whiteSpace=wrap;connectable=0;fillColor=none;top=0;left=0;bottom=0;right=0;overflow=hidden;" vertex="1" parent="148">
                    <mxGeometry width="53" height="20" as="geometry">
                        <mxRectangle width="53" height="20" as="alternateBounds"/>
                    </mxGeometry>
                </mxCell>
                <mxCell id="150" value="project_id" style="shape=partialRectangle;html=1;whiteSpace=wrap;connectable=0;fillColor=none;top=0;left=0;bottom=0;right=0;overflow=hidden;" vertex="1" parent="148">
                    <mxGeometry x="53" width="139" height="20" as="geometry">
                        <mxRectangle width="139" height="20" as="alternateBounds"/>
                    </mxGeometry>
                </mxCell>
                <mxCell id="151" value="string" style="shape=partialRectangle;html=1;whiteSpace=wrap;connectable=0;fillColor=none;top=0;left=0;bottom=0;right=0;overflow=hidden;" vertex="1" parent="148">
                    <mxGeometry x="192" width="128" height="20" as="geometry">
                        <mxRectangle width="128" height="20" as="alternateBounds"/>
                    </mxGeometry>
                </mxCell>
                <mxCell id="152" value="" style="shape=tableRow;horizontal=0;startSize=0;swimlaneHead=0;swimlaneBody=0;top=0;left=0;bottom=0;right=0;collapsible=0;dropTarget=0;fillColor=none;points=[[0,0.5],[1,0.5]];portConstraint=eastwest;" vertex="1" parent="131">
                    <mxGeometry y="130" width="320" height="20" as="geometry"/>
                </mxCell>
                <mxCell id="153" value="FK" style="shape=partialRectangle;html=1;whiteSpace=wrap;connectable=0;fillColor=none;top=0;left=0;bottom=0;right=0;overflow=hidden;" vertex="1" parent="152">
                    <mxGeometry width="53" height="20" as="geometry">
                        <mxRectangle width="53" height="20" as="alternateBounds"/>
                    </mxGeometry>
                </mxCell>
                <mxCell id="154" value="supporter_id" style="shape=partialRectangle;html=1;whiteSpace=wrap;connectable=0;fillColor=none;top=0;left=0;bottom=0;right=0;overflow=hidden;" vertex="1" parent="152">
                    <mxGeometry x="53" width="139" height="20" as="geometry">
                        <mxRectangle width="139" height="20" as="alternateBounds"/>
                    </mxGeometry>
                </mxCell>
                <mxCell id="155" value="string" style="shape=partialRectangle;html=1;whiteSpace=wrap;connectable=0;fillColor=none;top=0;left=0;bottom=0;right=0;overflow=hidden;" vertex="1" parent="152">
                    <mxGeometry x="192" width="128" height="20" as="geometry">
                        <mxRectangle width="128" height="20" as="alternateBounds"/>
                    </mxGeometry>
                </mxCell>
                <mxCell id="160" value="" style="endArrow=none;html=1;entryX=1.025;entryY=-0.4;entryDx=0;entryDy=0;entryPerimeter=0;exitX=1.025;exitY=0.2;exitDx=0;exitDy=0;exitPerimeter=0;" edge="1" parent="1" source="93" target="20">
                    <mxGeometry width="50" height="50" relative="1" as="geometry">
                        <mxPoint x="530" y="420" as="sourcePoint"/>
                        <mxPoint x="550" y="110" as="targetPoint"/>
                        <Array as="points">
                            <mxPoint x="660" y="310"/>
                        </Array>
                    </mxGeometry>
                </mxCell>
                <mxCell id="161" value="1" style="text;html=1;align=center;verticalAlign=middle;resizable=0;points=[];autosize=1;strokeColor=none;fillColor=none;" vertex="1" parent="1">
                    <mxGeometry x="540" y="90" width="30" height="30" as="geometry"/>
                </mxCell>
                <mxCell id="162" value="" style="endArrow=none;html=1;entryX=-0.1;entryY=0.6;entryDx=0;entryDy=0;entryPerimeter=0;" edge="1" parent="1" target="161">
                    <mxGeometry width="50" height="50" relative="1" as="geometry">
                        <mxPoint x="520" y="760" as="sourcePoint"/>
                        <mxPoint x="450" y="440" as="targetPoint"/>
                        <Array as="points">
                            <mxPoint x="720" y="430"/>
                        </Array>
                    </mxGeometry>
                </mxCell>
                <mxCell id="163" value="" style="endArrow=none;html=1;entryX=-0.028;entryY=0.75;entryDx=0;entryDy=0;entryPerimeter=0;exitX=-0.025;exitY=0.2;exitDx=0;exitDy=0;exitPerimeter=0;" edge="1" parent="1" source="148" target="65">
                    <mxGeometry width="50" height="50" relative="1" as="geometry">
                        <mxPoint x="180" y="730" as="sourcePoint"/>
                        <mxPoint x="170" y="430" as="targetPoint"/>
                        <Array as="points">
                            <mxPoint x="110" y="570"/>
                        </Array>
                    </mxGeometry>
                </mxCell>
                <mxCell id="164" value="1" style="text;html=1;align=center;verticalAlign=middle;resizable=0;points=[];autosize=1;strokeColor=none;fillColor=none;" vertex="1" parent="1">
                    <mxGeometry x="145" y="415" width="30" height="30" as="geometry"/>
                </mxCell>
            </root>
        </mxGraphModel>
    </diagram>
</mxfile>